<svg xmlns="http://www.w3.org/2000/svg" viewBox="0 0 32 32">
  <defs>
    <linearGradient id="gnomad" x1="0%" y1="0%" x2="100%" y2="100%">
      <stop offset="0%" stop-color="#22d3ee"/>
      <stop offset="45%" stop-color="#14b8a6"/>
      <stop offset="100%" stop-color="#eab308"/>
    </linearGradient>
  </defs>
  <rect width="32" height="32" rx="6" fill="#0a0a0a"/>
  <path
    fill="none"
    stroke="url(#gnomad)"
    stroke-width="1.8"
    stroke-linecap="round"
    stroke-linejoin="round"
    d="M10 8.5c0-1.2 1-2.2 2.2-2.2.8 0 1.5.4 1.9 1.1M12.2 6.3V4.8M14.4 6.3V4.8M8.8 12.2c-1.4 2.8-1.2 6.2 1.2 8.4 1.1 1 2.5 1.6 4 1.6 2.2 0 4.1-1.2 5.1-3 1.4-2.6 1.1-5.8-.8-8.1-1.2-1.5-3-2.4-4.9-2.4-1.2 0-2.3.3-3.3.9"
  />
  <circle cx="13.2" cy="11.2" r="1.1" fill="#eab308"/>
  <circle cx="18.8" cy="12.8" r=".9" fill="#22d3ee"/>
</svg>
